<svg width="116" height="48" viewBox="0 0 116 48" fill="none" xmlns="http://www.w3.org/2000/svg">
<path fill-rule="evenodd" clip-rule="evenodd" d="M42.8392 5.57254L45.1606 3.55046L47.4867 1.19922V5.57254H42.8392ZM76.2419 28.8945C77.61 29.4447 79.0988 29.7198 80.7083 29.7198C82.3178 29.7198 83.7965 29.4447 85.1445 28.8945C86.5126 28.3443 87.6895 27.57 88.6753 26.5715C89.6813 25.5526 90.4559 24.3503 90.9991 22.9647C91.5624 21.5586 91.8441 20.0201 91.8441 18.3492C91.8441 16.1077 91.3612 14.1412 90.3955 12.4499C89.4499 10.7586 88.1422 9.44424 86.4723 8.50687C84.8025 7.56951 82.8711 7.10083 80.6781 7.10083C78.5254 7.10083 76.604 7.56951 74.9141 8.50687C73.2442 9.44424 71.9365 10.7586 70.9909 12.4499C70.0453 14.1209 69.5725 16.0771 69.5725 18.3186C69.5725 20.0099 69.8441 21.5586 70.3873 22.9647C70.9506 24.3503 71.7252 25.5526 72.7111 26.5715C73.717 27.57 74.8939 28.3443 76.2419 28.8945ZM84.0279 25.0126C83.0622 25.6647 81.9456 25.9907 80.6781 25.9907C79.4307 25.9907 78.3242 25.6749 77.3585 25.0432C76.3928 24.3911 75.6383 23.4945 75.0951 22.3534C74.5519 21.1918 74.2803 19.8367 74.2803 18.2881C74.2803 16.7597 74.5419 15.4454 75.065 14.345C75.6082 13.2243 76.3626 12.3582 77.3283 11.7469C78.294 11.1356 79.4106 10.8299 80.6781 10.8299C81.9657 10.8299 83.0924 11.1356 84.0581 11.7469C85.0238 12.3582 85.7782 13.2243 86.3214 14.345C86.8647 15.4658 87.1363 16.7801 87.1363 18.2881C87.1363 19.8164 86.8546 21.1613 86.2913 22.3228C85.7481 23.4639 84.9936 24.3605 84.0279 25.0126ZM94.2538 7.4065V29.4142H98.7805V12.9508L106.959 29.4142H112.964V7.4065H108.438V23.8698L100.259 7.4065H94.2538ZM50.7547 29.4142V7.4065H55.4021V16.383L63.7011 7.4065H69.8877L59.5667 17.9824L70.4912 29.4142H64.184L55.4021 19.6871V29.4142H50.7547ZM43.0922 7.4065V29.4142H47.7397V7.4065H43.0922ZM21.3721 7.4065V29.4142H25.8989V12.9508L34.0772 29.4142H40.0826V7.4065H35.5559V23.8698L27.3776 7.4065H21.3721ZM9.26473 29.7198C6.16643 29.7198 3.8427 28.864 2.29355 27.1523C0.764516 25.4202 0 22.9036 0 19.6024V7.4065H4.64745V20.4277C4.64745 22.3432 5.05989 23.7492 5.88476 24.6458C6.70963 25.5424 7.84635 25.9907 9.29491 25.9907C10.7435 25.9907 11.8802 25.5424 12.7051 24.6458C13.5299 23.7492 13.9424 22.3534 13.9424 20.4583V7.4065H18.5898V19.6635C18.5898 22.9239 17.8152 25.4202 16.2661 27.1523C14.7169 28.864 12.3831 29.7198 9.26473 29.7198ZM25.0239 46.2745C25.6456 46.6243 26.3785 46.7992 27.2228 46.7992C27.8905 46.7992 28.4969 46.6865 29.0418 46.4611C29.5944 46.2356 30.0818 45.8975 30.5039 45.4466V42.2516H27.2919V43.0911H29.5599V45.0968C29.2605 45.3844 28.9267 45.5982 28.5583 45.7381C28.1899 45.8703 27.7716 45.9363 27.3034 45.9363C26.6203 45.9363 26.0332 45.8003 25.542 45.5282C25.0584 45.2561 24.6862 44.8674 24.4252 44.3622C24.1719 43.8491 24.0453 43.2388 24.0453 42.5314C24.0453 41.824 24.1681 41.2099 24.4137 40.6891C24.667 40.1682 25.02 39.764 25.4729 39.4764C25.9257 39.181 26.4553 39.0333 27.0616 39.0333C27.737 39.0333 28.2973 39.2043 28.7425 39.5463C29.1953 39.8884 29.4601 40.347 29.5368 40.9223H30.4809C30.4118 40.3781 30.2161 39.9 29.8937 39.488C29.579 39.076 29.1723 38.7534 28.6734 38.5202C28.1822 38.287 27.6334 38.1704 27.0271 38.1704C26.2519 38.1704 25.565 38.3569 24.9663 38.7301C24.3753 39.1032 23.911 39.6202 23.5733 40.2809C23.2433 40.9339 23.0782 41.6919 23.0782 42.5548C23.0782 43.4176 23.2471 44.1678 23.5848 44.8053C23.9225 45.4349 24.4022 45.9247 25.0239 46.2745ZM90.6536 46.7992C90.0856 46.7992 89.5599 46.6943 89.0763 46.4844C88.6005 46.2667 88.186 45.9674 87.833 45.5865C87.4799 45.1978 87.2075 44.7431 87.0156 44.2222C86.8237 43.6936 86.7278 43.1145 86.7278 42.4848C86.7278 41.8551 86.8237 41.2799 87.0156 40.759C87.2075 40.2304 87.4761 39.7757 87.8215 39.3947C88.1745 39.0061 88.589 38.7068 89.0648 38.4969C89.5483 38.2792 90.0741 38.1704 90.642 38.1704C91.2637 38.1704 91.8202 38.2986 92.3114 38.5552C92.8103 38.8117 93.217 39.1732 93.5317 39.6396C93.8541 40.106 94.0536 40.6502 94.1304 41.2721H93.1863C93.0942 40.5802 92.8218 40.0361 92.3689 39.6396C91.9238 39.2354 91.352 39.0333 90.6536 39.0333C90.0626 39.0333 89.5445 39.181 89.0994 39.4764C88.6542 39.764 88.3088 40.1682 88.0632 40.6891C87.8176 41.2021 87.6948 41.8007 87.6948 42.4848C87.6948 43.1689 87.8176 43.7714 88.0632 44.2922C88.3088 44.8053 88.6542 45.2095 89.0994 45.5049C89.5445 45.7925 90.0587 45.9363 90.642 45.9363C91.3558 45.9363 91.9391 45.7342 92.392 45.33C92.8525 44.9258 93.1249 44.3816 93.2094 43.6975H94.1534C94.0766 44.3194 93.8771 44.8636 93.5547 45.33C93.2401 45.7964 92.8333 46.1579 92.3344 46.4144C91.8432 46.671 91.2829 46.7992 90.6536 46.7992ZM110.529 46.6826V42.8813L107.386 38.287H108.538L111.047 41.9981L113.557 38.287H114.616L111.473 42.8813V46.6826H110.529ZM65.6559 38.287V46.6826H66.5539V39.8216L71.1704 46.6826H72.149V38.287H71.251V45.148L66.6345 38.287H65.6559ZM45.305 46.6826V38.287H45.7886H46.2491H50.762V39.1266H46.2491V41.8901H50.4397V42.7297H46.2491V45.8431H50.8541V46.6826H46.2491H45.7886H45.305ZM1.98162 46.6826L5.18213 38.287H5.44692H6.01104H6.33339L9.5339 46.6826H8.56684L7.61787 44.129H3.8401L2.89112 46.6826H1.98162ZM4.15209 43.2894L5.72898 39.046L7.30587 43.2894H4.15209Z" fill="#0F0F0F"/>
</svg>
