<svg width="150" height="63" viewBox="0 0 150 63" fill="none" xmlns="http://www.w3.org/2000/svg">
<path fill-rule="evenodd" clip-rule="evenodd" d="M55.7802 7.25692L58.8029 4.62402L61.8316 1.5625V7.25692H55.7802ZM99.2733 37.6241C101.055 38.3405 102.993 38.6987 105.089 38.6987C107.185 38.6987 109.11 38.3405 110.865 37.6241C112.647 36.9077 114.179 35.8994 115.463 34.5993C116.773 33.2726 117.781 31.7072 118.488 29.9029C119.222 28.0722 119.589 26.0689 119.589 23.8932C119.589 20.9745 118.96 18.4141 117.702 16.2118C116.471 14.0096 114.768 12.2982 112.594 11.0777C110.42 9.85715 107.905 9.24689 105.05 9.24689C102.247 9.24689 99.7448 9.85715 97.5443 11.0777C95.37 12.2982 93.6673 14.0096 92.436 16.2118C91.2048 18.3876 90.5892 20.9347 90.5892 23.8534C90.5892 26.0556 90.9428 28.0722 91.6502 29.9029C92.3837 31.7072 93.3922 33.2726 94.6758 34.5993C95.9857 35.8994 97.5181 36.9077 99.2733 37.6241ZM109.411 32.5695C108.154 33.4186 106.7 33.8431 105.05 33.8431C103.425 33.8431 101.985 33.4318 100.727 32.6093C99.4698 31.7603 98.4874 30.5928 97.7801 29.1069C97.0728 27.5946 96.7191 25.8301 96.7191 23.8136C96.7191 21.8236 97.0597 20.1122 97.7408 18.6794C98.4481 17.2201 99.4305 16.0924 100.688 15.2964C101.945 14.5004 103.399 14.1025 105.05 14.1025C106.726 14.1025 108.193 14.5004 109.451 15.2964C110.708 16.0924 111.69 17.2201 112.398 18.6794C113.105 20.1387 113.459 21.8501 113.459 23.8136C113.459 25.8036 113.092 27.5548 112.358 29.0671C111.651 30.553 110.669 31.7205 109.411 32.5695ZM122.726 9.6449V38.3007H128.62V16.8641L139.269 38.3007H147.089V9.6449H141.195V31.0815L130.546 9.6449H122.726ZM66.0868 38.3007V9.6449H72.1382V21.333L82.9442 9.6449H90.9996L77.5608 23.4156L91.7855 38.3007H83.5729L72.1382 25.6353V38.3007H66.0868ZM56.1096 9.6449V38.3007H62.161V9.6449H56.1096ZM27.8283 9.6449V38.3007H33.7225V16.8641L44.3713 38.3007H52.1909V9.6449H46.2967V31.0815L35.6479 9.6449H27.8283ZM12.0634 38.6987C8.0292 38.6987 5.00351 37.5843 2.98639 35.3555C0.995463 33.1002 0 29.8234 0 25.525V9.6449H6.05137V26.5996C6.05137 29.0937 6.5884 30.9245 7.66245 32.0919C8.7365 33.2594 10.2166 33.8431 12.1027 33.8431C13.9889 33.8431 15.469 33.2594 16.543 32.0919C17.6171 30.9245 18.1541 29.107 18.1541 26.6394V9.6449H24.2055V25.6046C24.2055 29.8499 23.1969 33.1002 21.1798 35.3555C19.1627 37.5843 16.1239 38.6987 12.0634 38.6987ZM32.5832 60.2543C33.3927 60.7098 34.347 60.9375 35.4463 60.9375C36.3158 60.9375 37.1053 60.7907 37.8148 60.4972C38.5344 60.2037 39.169 59.7633 39.7186 59.1763V55.0161H35.5363V56.1093H38.4894V58.7208C38.0996 59.0953 37.6649 59.3736 37.1852 59.5558C36.7055 59.7279 36.1609 59.814 35.5513 59.814C34.6618 59.814 33.8973 59.6368 33.2577 59.2825C32.6281 58.9283 32.1435 58.4222 31.8037 57.7642C31.4739 57.0962 31.309 56.3016 31.309 55.3805C31.309 54.4594 31.4689 53.6597 31.7887 52.9816C32.1185 52.3034 32.5782 51.777 33.1678 51.4025C33.7574 51.0179 34.447 50.8256 35.2365 50.8256C36.1159 50.8256 36.8454 51.0483 37.4251 51.4936C38.0147 51.939 38.3595 52.5362 38.4594 53.2852H39.6886C39.5987 52.5767 39.3438 51.9542 38.9241 51.4177C38.5144 50.8812 37.9847 50.4612 37.3351 50.1575C36.6955 49.8539 35.981 49.702 35.1915 49.702C34.1822 49.702 33.2877 49.945 32.5082 50.4308C31.7387 50.9167 31.1341 51.5898 30.6944 52.4502C30.2647 53.3004 30.0498 54.2873 30.0498 55.4109C30.0498 56.5344 30.2697 57.5112 30.7094 58.3412C31.1491 59.1611 31.7737 59.7988 32.5832 60.2543ZM118.038 60.9375C117.299 60.9375 116.614 60.8009 115.985 60.5276C115.365 60.2441 114.826 59.8544 114.366 59.3585C113.906 58.8524 113.551 58.2602 113.302 57.582C113.052 56.8937 112.927 56.1396 112.927 55.3198C112.927 54.4999 113.052 53.7508 113.302 53.0727C113.551 52.3844 113.901 51.7922 114.351 51.2962C114.811 50.7901 115.35 50.4004 115.97 50.1272C116.599 49.8437 117.284 49.702 118.023 49.702C118.833 49.702 119.558 49.869 120.197 50.2031C120.847 50.5371 121.376 51.0078 121.786 51.6151C122.206 52.2224 122.466 52.931 122.566 53.7407H121.336C121.216 52.8399 120.862 52.1313 120.272 51.6151C119.692 51.0887 118.948 50.8256 118.038 50.8256C117.269 50.8256 116.594 51.0179 116.015 51.4025C115.435 51.777 114.985 52.3034 114.666 52.9816C114.346 53.6496 114.186 54.429 114.186 55.3198C114.186 56.2105 114.346 56.995 114.666 57.6731C114.985 58.3412 115.435 58.8675 116.015 59.2522C116.594 59.6267 117.264 59.814 118.023 59.814C118.953 59.814 119.712 59.5508 120.302 59.0244C120.902 58.4981 121.256 57.7895 121.366 56.8988H122.596C122.496 57.7086 122.236 58.4171 121.816 59.0244C121.406 59.6318 120.877 60.1024 120.227 60.4365C119.587 60.7705 118.858 60.9375 118.038 60.9375ZM143.918 60.7857V55.836L139.826 49.8539H141.325L144.593 54.6861L147.861 49.8539H149.24L145.147 55.836V60.7857H143.918ZM85.4894 49.8539V60.7857H86.6587V51.8521L92.6698 60.7857H93.944V49.8539H92.7747V58.7875L86.7636 49.8539H85.4894ZM58.9909 60.7857V49.8539H59.6205H60.2202H66.0964V50.9471H60.2202V54.5454H65.6767V55.6386H60.2202V59.6925H66.2163V60.7857H60.2202H59.6205H58.9909ZM2.58024 60.7857L6.74757 49.8539H7.09235H7.82688H8.24661L12.4139 60.7857H11.1547L9.9191 57.4606H5.00012L3.76448 60.7857H2.58024ZM5.40636 56.3674L7.45961 50.8422L9.51286 56.3674H5.40636Z" fill="#0F0F0F"/>
</svg>
