<svg width="1290" height="801" viewBox="0 0 1290 801" fill="none" xmlns="http://www.w3.org/2000/svg">
<path opacity="0.5" d="M75.8824 0V66.75M0 66.75H75.8824M75.8824 66.75H151.764M75.8824 66.75V133.5M151.764 0V66.75M151.764 66.75H227.647M151.764 66.75V133.5M75.8824 133.5H0M75.8824 133.5H151.764M75.8824 133.5V200.25M227.647 0V66.75M227.647 66.75H303.529M227.647 66.75V133.5M151.764 133.5H227.647M151.764 133.5V200.25M303.529 0V66.75M303.529 66.75H379.412M303.529 66.75V133.5M227.647 133.5H303.529M227.647 133.5V200.25M379.412 0V66.75M379.412 66.75H455.295M379.412 66.75V133.5M303.529 133.5H379.412M303.529 133.5V200.25M455.295 0V66.75M455.295 66.75H531.176M455.295 66.75V133.5M379.412 133.5H455.295M379.412 133.5V200.25M531.176 0V66.75M531.176 66.75H607.059M531.176 66.75V133.5M455.295 133.5H531.176M455.295 133.5V200.25M607.059 0V66.75M607.059 66.75H682.941M607.059 66.75V133.5M531.176 133.5H607.059M531.176 133.5V200.25M682.941 0V66.75M682.941 66.75H758.824M682.941 66.75V133.5M607.059 133.5H682.941M607.059 133.5V200.25M758.824 0V66.75M758.824 66.75H834.706M758.824 66.75V133.5M682.941 133.5H758.824M682.941 133.5V200.25M834.706 0V66.75M834.706 66.75H910.588M834.706 66.75V133.5M758.824 133.5H834.706M758.824 133.5V200.25M910.588 0V66.75M910.588 66.75H986.471M910.588 66.75V133.5M834.706 133.5H910.588M834.706 133.5V200.25M986.471 0V66.75M986.471 66.75H1062.35M986.471 66.75V133.5M910.588 133.5H986.471M910.588 133.5V200.25M1062.35 0V66.75M1062.35 66.75H1138.24M1062.35 66.75V133.5M986.471 133.5H1062.35M986.471 133.5V200.25M1138.24 0V66.75M1138.24 66.75H1214.12M1138.24 66.75V133.5M1062.35 133.5H1138.24M1062.35 133.5V200.25M1214.12 0V66.75M1214.12 66.75H1290M1214.12 66.75V133.5M1138.24 133.5H1214.12M1138.24 133.5V200.25M1214.12 133.5H1290M1214.12 133.5V200.25M75.8824 200.25H0M75.8824 200.25H151.764M75.8824 200.25V267M151.764 200.25H227.647M151.764 200.25V267M227.647 200.25H303.529M227.647 200.25V267M303.529 200.25H379.412M303.529 200.25V267M379.412 200.25H455.295M379.412 200.25V267M455.295 200.25H531.176M455.295 200.25V267M531.176 200.25H607.059M531.176 200.25V267M607.059 200.25H682.941M607.059 200.25V267M682.941 200.25H758.824M682.941 200.25V267M758.824 200.25H834.706M758.824 200.25V267M834.706 200.25H910.588M834.706 200.25V267M910.588 200.25H986.471M910.588 200.25V267M986.471 200.25H1062.35M986.471 200.25V267M1062.35 200.25H1138.24M1062.35 200.25V267M1138.24 200.25H1214.12M1138.24 200.25V267M1214.12 200.25H1290M1214.12 200.25V267M75.8824 267H0M75.8824 267H151.764M75.8824 267V333.75M151.764 267H227.647M151.764 267V333.75M227.647 267H303.529M227.647 267V333.75M303.529 267H379.412M303.529 267V333.75M379.412 267H455.295M379.412 267V333.75M455.295 267H531.176M455.295 267V333.75M531.176 267H607.059M531.176 267V333.75M607.059 267H682.941M607.059 267V333.75M682.941 267H758.824M682.941 267V333.75M758.824 267H834.706M758.824 267V333.75M834.706 267H910.588M834.706 267V333.75M910.588 267H986.471M910.588 267V333.75M986.471 267H1062.35M986.471 267V333.75M1062.35 267H1138.24M1062.35 267V333.75M1138.24 267H1214.12M1138.24 267V333.75M1214.12 267H1290M1214.12 267V333.75M75.8824 333.75H0M75.8824 333.75H151.764M75.8824 333.75V400.5M151.764 333.75H227.647M151.764 333.75V400.5M227.647 333.75H303.529M227.647 333.75V400.5M303.529 333.75H379.412M303.529 333.75V400.5M379.412 333.75H455.295M379.412 333.75V400.5M455.295 333.75H531.176M455.295 333.75V400.5M531.176 333.75H607.059M531.176 333.75V400.5M607.059 333.75H682.941M607.059 333.75V400.5M682.941 333.75H758.824M682.941 333.75V400.5M758.824 333.75H834.706M758.824 333.75V400.5M834.706 333.75H910.588M834.706 333.75V400.5M910.588 333.75H986.471M910.588 333.75V400.5M986.471 333.75H1062.35M986.471 333.75V400.5M1062.35 333.75H1138.24M1062.35 333.75V400.5M1138.24 333.75H1214.12M1138.24 333.75V400.5M1214.12 333.75H1290M1214.12 333.75V400.5M75.8824 400.5H0M75.8824 400.5H151.764M75.8824 400.5V467.25M151.764 400.5H227.647M151.764 400.5V467.25M227.647 400.5H303.529M227.647 400.5V467.25M303.529 400.5H379.412M303.529 400.5V467.25M379.412 400.5H455.295M379.412 400.5V467.25M455.295 400.5H531.176M455.295 400.5V467.25M531.176 400.5H607.059M531.176 400.5V467.25M607.059 400.5H682.941M607.059 400.5V467.25M682.941 400.5H758.824M682.941 400.5V467.25M758.824 400.5H834.706M758.824 400.5V467.25M834.706 400.5H910.588M834.706 400.5V467.25M910.588 400.5H986.471M910.588 400.5V467.25M986.471 400.5H1062.35M986.471 400.5V467.25M1062.35 400.5H1138.24M1062.35 400.5V467.25M1138.24 400.5H1214.12M1138.24 400.5V467.25M1214.12 400.5H1290M1214.12 400.5V467.25M75.8824 467.25H0M75.8824 467.25H151.764M75.8824 467.25V534M151.764 467.25H227.647M151.764 467.25V534M227.647 467.25H303.529M227.647 467.25V534M303.529 467.25H379.412M303.529 467.25V534M379.412 467.25H455.295M379.412 467.25V534M455.295 467.25H531.176M455.295 467.25V534M531.176 467.25H607.059M531.176 467.25V534M607.059 467.25H682.941M607.059 467.25V534M682.941 467.25H758.824M682.941 467.25V534M758.824 467.25H834.706M758.824 467.25V534M834.706 467.25H910.588M834.706 467.25V534M910.588 467.25H986.471M910.588 467.25V534M986.471 467.25H1062.35M986.471 467.25V534M1062.35 467.25H1138.24M1062.35 467.25V534M1138.24 467.25H1214.12M1138.24 467.25V534M1214.12 467.25H1290M1214.12 467.25V534M75.8824 534H0M75.8824 534H151.764M75.8824 534V600.75M151.764 534H227.647M151.764 534V600.75M227.647 534H303.529M227.647 534V600.75M303.529 534H379.412M303.529 534V600.75M379.412 534H455.295M379.412 534V600.75M455.295 534H531.176M455.295 534V600.75M531.176 534H607.059M531.176 534V600.75M607.059 534H682.941M607.059 534V600.75M682.941 534H758.824M682.941 534V600.75M758.824 534H834.706M758.824 534V600.75M834.706 534H910.588M834.706 534V600.75M910.588 534H986.471M910.588 534V600.75M986.471 534H1062.35M986.471 534V600.75M1062.35 534H1138.24M1062.35 534V600.75M1138.24 534H1214.12M1138.24 534V600.75M1214.12 534H1290M1214.12 534V600.75M75.8824 600.75H0M75.8824 600.75H151.764M75.8824 600.75V667.5M151.764 600.75H227.647M151.764 600.75V667.5M227.647 600.75H303.529M227.647 600.75V667.5M303.529 600.75H379.412M303.529 600.75V667.5M379.412 600.75H455.295M379.412 600.75V667.5M455.295 600.75H531.176M455.295 600.75V667.5M531.176 600.75H607.059M531.176 600.75V667.5M607.059 600.75H682.941M607.059 600.75V667.5M682.941 600.75H758.824M682.941 600.75V667.5M758.824 600.75H834.706M758.824 600.75V667.5M834.706 600.75H910.588M834.706 600.75V667.5M910.588 600.75H986.471M910.588 600.75V667.5M986.471 600.75H1062.35M986.471 600.75V667.5M1062.35 600.75H1138.24M1062.35 600.75V667.5M1138.24 600.75H1214.12M1138.24 600.75V667.5M1214.12 600.75H1290M1214.12 600.75V667.5M75.8824 667.5H0M75.8824 667.5H151.764M75.8824 667.5V734.25M151.764 667.5H227.647M151.764 667.5V734.25M227.647 667.5H303.529M227.647 667.5V734.25M303.529 667.5H379.412M303.529 667.5V734.25M379.412 667.5H455.295M379.412 667.5V734.25M455.295 667.5H531.176M455.295 667.5V734.25M531.176 667.5H607.059M531.176 667.5V734.25M607.059 667.5H682.941M607.059 667.5V734.25M682.941 667.5H758.824M682.941 667.5V734.25M758.824 667.5H834.706M758.824 667.5V734.25M834.706 667.5H910.588M834.706 667.5V734.25M910.588 667.5H986.471M910.588 667.5V734.25M986.471 667.5H1062.35M986.471 667.5V734.25M1062.35 667.5H1138.24M1062.35 667.5V734.25M1138.24 667.5H1214.12M1138.24 667.5V734.25M1214.12 667.5H1290M1214.12 667.5V734.25M75.8824 734.25H0M75.8824 734.25H151.764M75.8824 734.25V801M151.764 734.25H227.647M151.764 734.25V801M227.647 734.25H303.529M227.647 734.25V801M303.529 734.25H379.412M303.529 734.25V801M379.412 734.25H455.295M379.412 734.25V801M455.295 734.25H531.176M455.295 734.25V801M531.176 734.25H607.059M531.176 734.25V801M607.059 734.25H682.941M607.059 734.25V801M682.941 734.25H758.824M682.941 734.25V801M758.824 734.25H834.706M758.824 734.25V801M834.706 734.25H910.588M834.706 734.25V801M910.588 734.25H986.471M910.588 734.25V801M986.471 734.25H1062.35M986.471 734.25V801M1062.35 734.25H1138.24M1062.35 734.25V801M1138.24 734.25H1214.12M1138.24 734.25V801M1214.12 734.25H1290M1214.12 734.25V801" stroke="url(#paint0_radial_946_1077)" stroke-opacity="0.1" stroke-width="1.2"/>
<defs>
<radialGradient id="paint0_radial_946_1077" cx="0" cy="0" r="1" gradientUnits="userSpaceOnUse" gradientTransform="translate(645 421.895) rotate(90) scale(688.817 1176.36)">
<stop stop-color="#001C64"/>
<stop offset="1" stop-color="#001C64" stop-opacity="0"/>
</radialGradient>
</defs>
</svg>
